<?xml version="1.0" encoding="utf-8"?>
<!-- Generator: Adobe Illustrator 21.1.0, SVG Export Plug-In . SVG Version: 6.00 Build 0)  -->
<svg version="1.1" id="Layer_1" xmlns="http://www.w3.org/2000/svg" xmlns:xlink="http://www.w3.org/1999/xlink" x="0px" y="0px"
	 width="411px" height="508px" viewBox="0 0 411 508" style="enable-background:new 0 0 411 508;" xml:space="preserve">
<g transform="matrix( 1, 0, 0, 1, 0,0) ">
	<g>
		<g id="Layer1_0_FILL">
			<path d="M0,144.1v13.6v34.1v240.4v29.5V508h311v-28.8v-17.5v-29.5V175.5L245.6,110H0v15.1v2.4V144.1 M231.6,138.8v51.5H283v289
				H28V138.8H231.6 M243.6,422.8c-1.9-1.9-4.3-2.9-7-2.9h-162c-2.8,0-5.1,1-7.1,2.9c-1.9,2-2.9,4.3-2.9,7.1c0,2.8,1,5.1,2.9,7
				c2,2,4.3,3,7.1,3h162c2.8,0,5.1-1,7-3c2-1.9,3-4.3,3-7C246.5,427.2,245.5,424.8,243.6,422.8 M243.6,372.9c-1.9-1.9-4.3-2.9-7-2.9
				h-162c-2.8,0-5.1,1-7.1,2.9c-1.9,2-2.9,4.3-2.9,7.1c0,2.8,1,5.1,2.9,7c2,2,4.3,3,7.1,3h162c2.8,0,5.1-1,7-3c2-1.9,3-4.3,3-7
				C246.5,377.2,245.5,374.8,243.6,372.9 M243.6,322.9c-1.9-1.9-4.3-2.9-7-2.9h-162c-2.8,0-5.1,1-7.1,2.9c-1.9,2-2.9,4.3-2.9,7.1
				c0,2.8,1,5.1,2.9,7c2,2,4.3,3,7.1,3h162c2.8,0,5.1-1,7-3c2-1.9,3-4.3,3-7C246.5,327.2,245.5,324.8,243.6,322.9 M243.6,272.9
				c-1.9-1.9-4.3-2.9-7-2.9h-162c-2.8,0-5.1,1-7.1,2.9c-1.9,2-2.9,4.3-2.9,7.1c0,2.8,1,5.1,2.9,7c2,2,4.3,3,7.1,3h162
				c2.8,0,5.1-1,7-3c2-1.9,3-4.3,3-7C246.5,277.2,245.5,274.8,243.6,272.9 M64.5,230c0,2.8,1,5.1,2.9,7c2,2,4.3,3,7.1,3h162
				c2.8,0,5.1-1,7-3c2-1.9,3-4.3,3-7c0-2.8-1-5.1-3-7.1c-1.9-1.9-4.3-2.9-7-2.9h-162c-2.8,0-5.1,1-7.1,2.9
				C65.5,224.8,64.5,227.2,64.5,230 M281.5,135.2H333v289h-4.5V453H361v-28.8v-17.5v-29.5V120.4L295.5,55H50v15.1v2.4v16.6v3.4h28
				v-8.8h203.5V135.2 M411,65.4L345.5,0H208h-28h-12h-28h-40v15.1v19v3.4h28v-8.8h203.5v51.5H383v289h-4.5V398H411v-46.2V338v-15.8
				v-13V278v-28.8V65.4z"/>
		</g>
	</g>
</g>
</svg>
