<?xml version="1.0" encoding="utf-8"?>
<svg version="1.1" id="Layer_1" xmlns="http://www.w3.org/2000/svg" xmlns:xlink="http://www.w3.org/1999/xlink" x="0px" y="0px"
	 width="768.6px" height="501.3px" viewBox="0 0 768.6 501.3" style="enable-background:new 0 0 768.6 501.3;" xml:space="preserve">
    <path class="st0" d="M590.3,386v-50H246.4v50h103.8v21.6H246.4v22.1h327.1v-22.1H456.4V386H590.3 M653.3,241.7h50V0H103.3v133.5
        h50V50h500V241.7 M230.7,149.2H0v346h230.7V149.2 M115.3,453.8c3,0,5.6,1.1,7.8,3.2c2.2,2.2,3.2,4.8,3.2,7.8s-1.1,5.6-3.2,7.8
        c-2.1,2.2-4.7,3.2-7.8,3.2s-5.6-1.1-7.8-3.2c-2.1-2.1-3.2-4.7-3.2-7.8s1.1-5.6,3.2-7.8C109.7,454.9,112.3,453.8,115.3,453.8
            M33.3,182.4h164v254h-164V182.4 M768.6,257.5H606v243.9h162.5V257.5 M661.5,282.1c0.4-0.4,0.8-0.6,1.4-0.6h48.9
        c0.6,0,1,0.2,1.5,0.6c0.4,0.4,0.5,0.8,0.5,1.4s-0.2,1.1-0.5,1.5c-0.4,0.4-0.9,0.5-1.5,0.5h-48.9c-0.6,0-1-0.2-1.4-0.5
        c-0.4-0.4-0.6-0.9-0.6-1.5C660.9,282.9,661.1,282.5,661.5,282.1 M683.1,274.6c0-1.2,0.4-2.2,1.2-3c0.8-0.8,1.8-1.2,3-1.2
        c1.2,0,2.1,0.4,3,1.2c0.8,0.8,1.2,1.8,1.2,3c0,1.2-0.4,2.2-1.2,3c-0.8,0.8-1.8,1.2-3,1.2s-2.2-0.4-3-1.2
        C683.5,276.8,683.1,275.8,683.1,274.6 M695,479.8c0,2.1-0.8,4-2.3,5.5c-1.5,1.5-3.3,2.3-5.5,2.3s-4-0.8-5.5-2.3
        c-1.5-1.5-2.2-3.3-2.2-5.5c0-2.1,0.8-4,2.2-5.5c1.5-1.5,3.4-2.2,5.5-2.2s4,0.8,5.5,2.2C694.3,475.9,695,477.7,695,479.8
            M745.1,459.8H629.5v-163h115.6V459.8z"/>
</svg>
