<?xml version="1.0" encoding="utf-8"?>
<!-- Generator: Adobe Illustrator 21.1.0, SVG Export Plug-In . SVG Version: 6.00 Build 0)  -->
<svg version="1.1" id="Layer_1" xmlns="http://www.w3.org/2000/svg" xmlns:xlink="http://www.w3.org/1999/xlink" x="0px" y="0px"
	 width="411px" height="526px" viewBox="0 0 411 526" style="enable-background:new 0 0 411 526;" xml:space="preserve">
<g transform="matrix( 1, 0, 0, 1, 0,0) ">
	<g>
		<g id="Layer0_0_FILL">
			<path d="M411,86.5L324.5,0H0v20v25v18.1v45v317.6v39V526h411v-61.2v-39V86.5 M306,38v68h68v382H37V38H306 M146,167.3h-19.2
				l-32.3,32.5l12.4,13.1l17-17.4v74.6H146V167.3 M172.8,405.7c6.9-9.8,10.3-21.9,10.3-36.5c0-14.5-3.4-26.6-10.3-36.5
				c-7.7-11-18.5-16.5-32.2-16.5c-13.8,0-24.6,5.5-32.3,16.5c-6.8,9.7-10.2,21.9-10.2,36.5s3.4,26.7,10.2,36.5
				c7.7,11.2,18.5,16.8,32.3,16.8C154.3,422.5,165.1,416.9,172.8,405.7 M160.8,369.2c0,22.5-6.7,33.8-20.2,33.8
				c-13.5,0-20.3-11.3-20.3-33.8c0-22.4,6.8-33.5,20.3-33.5C154,335.7,160.8,346.8,160.8,369.2 M304.9,317.7h-19.1l-32.4,32.5
				l12.4,13.1l17-17.4v74.6h22.1V317.7 M241.6,317.7h-19.2l-32.3,32.5l12.4,13.1l17-17.4v74.6h22.1V317.7 M203.9,165.8
				c-13.8,0-24.6,5.5-32.3,16.5c-6.8,9.7-10.2,21.9-10.2,36.5c0,14.6,3.4,26.7,10.2,36.5c7.7,11.2,18.5,16.8,32.3,16.8
				c13.8,0,24.5-5.6,32.2-16.8c6.9-9.8,10.3-21.9,10.3-36.5c0-14.5-3.4-26.7-10.3-36.5C228.4,171.3,217.7,165.8,203.9,165.8
				 M203.9,185.2c13.5,0,20.2,11.2,20.2,33.6c0,22.5-6.7,33.8-20.2,33.8c-13.5,0-20.3-11.3-20.3-33.8
				C183.6,196.4,190.4,185.2,203.9,185.2 M304.9,167.3h-19.1l-32.4,32.5l12.4,13.1l17-17.4v74.6h22.1V167.3z"/>
		</g>
	</g>
</g>
</svg>
