<?xml version="1.0" encoding="utf-8"?>
<svg version="1.1" id="Layer_1" xmlns="http://www.w3.org/2000/svg" xmlns:xlink="http://www.w3.org/1999/xlink" x="0px" y="0px"
	 viewBox="0 200 50 50" style="enable-background:new 0 200 50 50;" xml:space="preserve">
<style type="text/css">
	.st0{fill:#ffffff;}
</style>
<path id="linkedin" class="st0" d="M20.5,219.6H27v3.3c0.9-1.9,3.3-3.6,6.9-3.6c6.9,0,8.6,3.7,8.6,10.6v12.7h-7v-11.1
	c0-3.9-0.9-6.1-3.3-6.1c-3.3,0-4.7,2.4-4.7,6.1v11.1h-7V219.6z M8.5,242.4h7v-23h-7V242.4z M16.5,211.9c0,2.5-2,4.5-4.5,4.5
	s-4.5-2-4.5-4.5s2-4.5,4.5-4.5S16.5,209.4,16.5,211.9z"/>
</svg>