<?xml version="1.0" encoding="utf-8"?>
<!-- Generator: Adobe Illustrator 21.1.0, SVG Export Plug-In . SVG Version: 6.00 Build 0)  -->
<svg version="1.1" id="Layer_1" xmlns="http://www.w3.org/2000/svg" xmlns:xlink="http://www.w3.org/1999/xlink" x="0px" y="0px"
	 viewBox="0 50 50 50" style="enable-background:new 0 50 50 50;" xml:space="preserve">
<style type="text/css">
	.st0{fill:#ffffff;}
</style>
<path id="Github_1_" class="st0" d="M24.8,52.4C12,52.4,1.7,62.7,1.7,75.5c0,10.2,6.6,18.9,15.8,21.9c1.2,0.2,1.5-0.5,1.5-1.1
	c0-0.5,0-2.1,0-4c-6.4,1.4-7.8-3-7.8-3c-1-2.7-2.6-3.4-2.6-3.4c-2.1-1.4,0.2-1.4,0.2-1.4c2.3,0.2,3.5,2.4,3.5,2.4
	c2.1,3.5,5.4,2.5,6.7,1.9c0.2-1.5,0.8-2.5,1.5-3.1C15.4,85.1,10,83.1,10,74.3c0-2.5,0.9-4.6,2.4-6.2c-0.2-0.6-1-2.9,0.2-6.1
	c0,0,1.9-0.6,6.3,2.4c1.8-0.5,3.8-0.8,5.8-0.8s3.9,0.3,5.8,0.8c4.4-3,6.3-2.4,6.3-2.4c1.3,3.2,0.5,5.5,0.2,6.1
	c1.5,1.6,2.4,3.7,2.4,6.2c0,8.9-5.4,10.8-10.5,11.4c0.8,0.7,1.6,2.1,1.6,4.3c0,2.9,0,5.6,0,6.4c0,0.6,0.4,1.3,1.5,1.1
	c9.2-3.1,15.8-11.7,15.8-21.9C47.9,62.7,37.6,52.4,24.8,52.4z"/>
</svg>
